<svg width="113" height="47" viewBox="0 0 113 47" fill="none" xmlns="http://www.w3.org/2000/svg">
<path d="M91.458 15.6666L99.2913 23.5L91.458 31.3333M79.708 15.6666L87.5413 23.5L79.708 31.3333" stroke="#EB3030" stroke-width="3.91667" stroke-linecap="round" stroke-linejoin="round"/>
<path d="M17.3558 13.6616V35H15.9114C15.6831 35 15.4895 34.9603 15.3307 34.8809C15.1818 34.8015 15.0329 34.6674 14.8839 34.4788L2.53954 18.3968C2.5594 18.645 2.57429 18.8882 2.58421 19.1265C2.59414 19.3647 2.5991 19.5881 2.5991 19.7966V35H0.0676818V13.6616H1.55675C1.68581 13.6616 1.79501 13.6715 1.88435 13.6914C1.97369 13.7013 2.05311 13.7261 2.1226 13.7658C2.19209 13.7956 2.26158 13.8453 2.33107 13.9147C2.40056 13.9743 2.47501 14.0537 2.55443 14.153L14.8988 30.2201C14.879 29.962 14.8591 29.7138 14.8393 29.4755C14.8293 29.2274 14.8244 28.9941 14.8244 28.7757V13.6616H17.3558ZM31.8161 25.8124C31.8161 25.1969 31.7267 24.6361 31.5481 24.1298C31.3793 23.6136 31.1262 23.1718 30.7886 22.8045C30.461 22.4273 30.059 22.1394 29.5825 21.9408C29.106 21.7324 28.5649 21.6281 27.9594 21.6281C26.6887 21.6281 25.6811 22.0004 24.9366 22.7449C24.202 23.4795 23.7453 24.502 23.5666 25.8124H31.8161ZM33.9604 32.8855C33.6328 33.2826 33.2406 33.6301 32.784 33.9279C32.3273 34.2158 31.8359 34.454 31.3098 34.6426C30.7936 34.8312 30.2575 34.9702 29.7016 35.0596C29.1457 35.1588 28.5947 35.2085 28.0487 35.2085C27.0064 35.2085 26.0435 35.0347 25.1599 34.6873C24.2863 34.3299 23.5269 33.8137 22.8817 33.1387C22.2463 32.4537 21.75 31.6099 21.3926 30.6072C21.0352 29.6046 20.8565 28.453 20.8565 27.1526C20.8565 26.1003 21.0154 25.1175 21.333 24.2042C21.6606 23.2909 22.1272 22.5017 22.7328 21.8366C23.3383 21.1616 24.0779 20.6354 24.9515 20.2582C25.8251 19.871 26.8078 19.6774 27.8998 19.6774C28.8032 19.6774 29.6371 19.8313 30.4015 20.1391C31.1758 20.4369 31.8409 20.8737 32.3968 21.4494C32.9627 22.0153 33.4044 22.7201 33.7221 23.5639C34.0398 24.3978 34.1986 25.3508 34.1986 26.4229C34.1986 26.8399 34.1539 27.1178 34.0646 27.2568C33.9752 27.3958 33.8065 27.4653 33.5583 27.4653H23.4773C23.5071 28.4183 23.6361 29.2472 23.8644 29.952C24.1027 30.6569 24.4303 31.2475 24.8472 31.724C25.2642 32.1906 25.7605 32.543 26.3363 32.7813C26.9121 33.0096 27.5573 33.1238 28.2721 33.1238C28.9372 33.1238 29.508 33.0493 29.9845 32.9004C30.471 32.7416 30.8879 32.5728 31.2354 32.3941C31.5828 32.2154 31.8707 32.0516 32.099 31.9027C32.3373 31.7439 32.5408 31.6645 32.7095 31.6645C32.9279 31.6645 33.0967 31.7489 33.2158 31.9176L33.9604 32.8855ZM49.6398 35H47.0935C46.8751 35 46.7014 34.9454 46.5723 34.8362C46.4532 34.7171 46.3539 34.588 46.2745 34.449L42.4774 28.5374C42.4377 28.6764 42.393 28.8154 42.3434 28.9544C42.3037 29.0834 42.2441 29.2025 42.1647 29.3117L38.6505 34.449C38.5512 34.588 38.442 34.7171 38.3229 34.8362C38.2137 34.9454 38.0598 35 37.8613 35H35.4936L40.7798 27.2568L35.7021 19.9157H38.2484C38.4668 19.9157 38.6256 19.9504 38.7249 20.0199C38.8242 20.0894 38.9135 20.1887 38.993 20.3177L42.7007 25.9762C42.7802 25.6883 42.9042 25.4104 43.073 25.1423L46.3192 20.3773C46.4085 20.2383 46.5028 20.1291 46.6021 20.0497C46.7113 19.9604 46.8404 19.9157 46.9893 19.9157H49.4313L44.3536 27.1228L49.6398 35ZM56.7143 35.2383C55.5231 35.2383 54.6048 34.9057 53.9595 34.2406C53.3242 33.5755 53.0065 32.6175 53.0065 31.3667V22.1344H51.1899C51.031 22.1344 50.897 22.0897 50.7878 22.0004C50.6786 21.9011 50.624 21.7522 50.624 21.5537V20.4964L53.0959 20.1837L53.7064 15.5229C53.7362 15.374 53.8007 15.2549 53.9 15.1656C54.0092 15.0663 54.1481 15.0167 54.3169 15.0167H55.6571V20.2135H60.02V22.1344H55.6571V31.188C55.6571 31.8233 55.8109 32.2949 56.1187 32.6026C56.4264 32.9103 56.8235 33.0642 57.3099 33.0642C57.5879 33.0642 57.8261 33.0295 58.0247 32.96C58.2332 32.8806 58.4119 32.7962 58.5608 32.7068C58.7097 32.6175 58.8338 32.5381 58.933 32.4686C59.0422 32.3892 59.1365 32.3495 59.2159 32.3495C59.3549 32.3495 59.479 32.4338 59.5882 32.6026L60.3625 33.8683C59.9059 34.2952 59.3549 34.6327 58.7097 34.8809C58.0644 35.1191 57.3993 35.2383 56.7143 35.2383Z" fill="#EB3030"/>
</svg>
