<svg width="115" height="47" viewBox="0 0 115 47" fill="none" xmlns="http://www.w3.org/2000/svg">
<path d="M65.7222 24.7254C66.5462 24.7254 67.2708 24.6162 67.8963 24.3978C68.5316 24.1794 69.0627 23.8766 69.4896 23.4895C69.9264 23.0924 70.254 22.6208 70.4724 22.0749C70.6908 21.5289 70.8 20.9283 70.8 20.2731C70.8 18.9131 70.378 17.8509 69.5342 17.0865C68.7004 16.3221 67.4297 15.9399 65.7222 15.9399H62.2973V24.7254H65.7222ZM65.7222 13.6616C67.0723 13.6616 68.2437 13.8204 69.2364 14.1381C70.2391 14.4458 71.068 14.8876 71.7232 15.4634C72.3784 16.0391 72.8648 16.734 73.1825 17.5481C73.5101 18.3621 73.6739 19.2704 73.6739 20.2731C73.6739 21.2658 73.5001 22.1741 73.1527 22.9981C72.8052 23.822 72.294 24.5318 71.6189 25.1275C70.9538 25.7231 70.1249 26.1897 69.1322 26.5272C68.1494 26.8548 67.0127 27.0186 65.7222 27.0186H62.2973V35H59.4234V13.6616H65.7222ZM78.91 22.9385C79.3865 21.9061 79.9722 21.102 80.6671 20.5262C81.362 19.9405 82.2108 19.6477 83.2135 19.6477C83.5311 19.6477 83.8339 19.6824 84.1218 19.7519C84.4196 19.8214 84.6827 19.9306 84.911 20.0795L84.7174 22.06C84.6579 22.3081 84.5089 22.4322 84.2707 22.4322C84.1317 22.4322 83.9282 22.4025 83.6602 22.3429C83.3921 22.2833 83.0894 22.2535 82.7518 22.2535C82.2753 22.2535 81.8485 22.323 81.4712 22.462C81.1039 22.601 80.7714 22.8095 80.4736 23.0874C80.1857 23.3555 79.9226 23.693 79.6844 24.1C79.456 24.4971 79.2476 24.9537 79.0589 25.4699V35H76.3935V19.9157H77.9124C78.2002 19.9157 78.3988 19.9703 78.508 20.0795C78.6172 20.1887 78.6916 20.3773 78.7313 20.6453L78.91 22.9385ZM96.7268 25.8124C96.7268 25.1969 96.6374 24.6361 96.4588 24.1298C96.29 23.6136 96.0369 23.1718 95.6993 22.8045C95.3717 22.4273 94.9697 22.1394 94.4932 21.9408C94.0167 21.7324 93.4756 21.6281 92.8701 21.6281C91.5994 21.6281 90.5918 22.0004 89.8473 22.7449C89.1127 23.4795 88.656 24.502 88.4773 25.8124H96.7268ZM98.8711 32.8855C98.5435 33.2826 98.1513 33.6301 97.6947 33.9279C97.238 34.2158 96.7466 34.454 96.2205 34.6426C95.7043 34.8312 95.1682 34.9702 94.6123 35.0596C94.0564 35.1588 93.5054 35.2085 92.9594 35.2085C91.9171 35.2085 90.9542 35.0347 90.0706 34.6873C89.197 34.3299 88.4376 33.8137 87.7924 33.1387C87.157 32.4537 86.6607 31.6099 86.3033 30.6072C85.9459 29.6046 85.7672 28.453 85.7672 27.1526C85.7672 26.1003 85.9261 25.1175 86.2437 24.2042C86.5713 23.2909 87.0379 22.5017 87.6434 21.8366C88.249 21.1616 88.9886 20.6354 89.8622 20.2582C90.7358 19.871 91.7185 19.6774 92.8105 19.6774C93.7139 19.6774 94.5478 19.8313 95.3122 20.1391C96.0865 20.4369 96.7516 20.8737 97.3075 21.4494C97.8734 22.0153 98.3151 22.7201 98.6328 23.5639C98.9505 24.3978 99.1093 25.3508 99.1093 26.4229C99.1093 26.8399 99.0646 27.1178 98.9753 27.2568C98.8859 27.3958 98.7172 27.4653 98.469 27.4653H88.388C88.4178 28.4183 88.5468 29.2472 88.7751 29.952C89.0134 30.6569 89.341 31.2475 89.7579 31.724C90.1749 32.1906 90.6712 32.543 91.247 32.7813C91.8228 33.0096 92.468 33.1238 93.1828 33.1238C93.8479 33.1238 94.4187 33.0493 94.8952 32.9004C95.3817 32.7416 95.7986 32.5728 96.146 32.3941C96.4935 32.2154 96.7814 32.0516 97.0097 31.9027C97.248 31.7439 97.4515 31.6645 97.6202 31.6645C97.8386 31.6645 98.0074 31.7489 98.1265 31.9176L98.8711 32.8855ZM114.97 19.9157L108.82 35H106.438L100.288 19.9157H102.447C102.666 19.9157 102.844 19.9703 102.983 20.0795C103.122 20.1887 103.217 20.3177 103.266 20.4667L107.093 30.1754C107.212 30.5427 107.316 30.9001 107.406 31.2475C107.495 31.595 107.579 31.9424 107.659 32.2899C107.738 31.9424 107.823 31.595 107.912 31.2475C108.001 30.9001 108.111 30.5427 108.24 30.1754L112.111 20.4667C112.171 20.3078 112.27 20.1788 112.409 20.0795C112.548 19.9703 112.712 19.9157 112.9 19.9157H114.97Z" fill="#EB3030"/>
<path d="M33.2913 31.3334L25.458 23.5L33.2913 15.6667M21.5413 31.3334L13.708 23.5L21.5413 15.6667" stroke="#EB3030" stroke-width="3.91667" stroke-linecap="round" stroke-linejoin="round"/>
</svg>
